<svg width="625" height="430" xmlns="http://www.w3.org/2000/svg">
  <rect width="100%" height="100%" fill="none"/>
  <g class="currentLayer" fill="red" stroke="red"> 
    <path d="M88.15 99.3c0-52.25 42.84-94.58 95.73-94.58 52.9 0 95.74 42.33 95.74 94.59 0 52.26-42.85 94.59-95.74 94.59-52.89 0-95.73-42.33-95.73-94.6z"/> 
    <path d="M94.45 89.52c0-45.3 34.23-82 76.5-82 42.26 0 76.5 36.7 76.5 82s-34.24 82-76.5 82c-42.27 0-76.5-36.7-76.5-82z"/> 
    <path d="M119.7 141.7h103v132h-103z"/> 
    <path d="M178.45 212.52h25v19h-25z"/> 
    <path d="M12.76 213.17l307.07-69.09 13.45 59.77L26.2 272.94zM165.07 246.52h78.88v69.44h-78.88z"/>
    <path d="M3.94 362.66L153.67 244l41.03 51.77L44.97 414.43zM243.8 248.3l86.37 151.04-55.56 31.77-86.37-151.04zM296.1 128.38a58.77 58.77 0 0170.66 1.36c20.6 16.14 27.69 43.84 17.28 67.54-10.41 23.7-35.72 37.47-61.71 33.6l-26.22-102.5z"/>
    <polygon points="310,155 320,190 610,125"/>
  </g>
</svg>
