<svg xmlns="http://www.w3.org/2000/svg" viewBox="0 0 625 430">
  <rect fill="none" height="100%" width="100%"/>
  <g stroke="green" fill="green" class="currentLayer">
    <path d="M525.2 99.3c0-52.25-42.84-94.58-95.73-94.58-52.9 0-95.74 42.33-95.74 94.59 0 52.26 42.85 94.59 95.74 94.59 52.89 0 95.73-42.33 95.73-94.6z"/>
    <path d="M518.9 89.52c0-45.3-34.23-82-76.5-82-42.26 0-76.5 36.7-76.5 82s34.24 82 76.5 82c42.27 0 76.5-36.7 76.5-82z"/>
    <path d="M493.65 141.7h-103v132h103z"/>
    <path d="M434.9 212.52h-25v19h25z"/>
    <path d="M600.59 213.17l-307.07-69.09-13.45 59.77 307.08 69.09zm-152.31 33.35H369.4v69.44h78.88z"/>
    <path d="M609.4 362.66L459.69 244l-41.03 51.77 149.73 118.66zM369.56 248.3l-86.37 151.04 55.56 31.77 86.37-151.04zm-52.3-119.92a58.77 58.77 0 00-70.66 1.36c-20.6 16.14-27.7 43.84-17.28 67.54 10.4 23.7 35.72 37.47 61.7 33.6l26.23-102.5z"/>
    <path d="M293.35 190l-290-65 300 30z"/>
  </g>
</svg>
